<svg width="174" height="74" viewBox="0 0 174 74" fill="none" xmlns="http://www.w3.org/2000/svg">
<g filter="url(#filter0_d_9_83)">
<path d="M20.5686 15.736C11.564 15.736 4.23608 23.4407 4.23608 32.9083C4.23608 42.3758 11.564 50.0805 20.5686 50.0805C29.5733 50.0805 36.9012 42.3758 36.9012 32.9083C36.9012 23.4407 29.5733 15.736 20.5686 15.736ZM29.449 40.7435C28.9522 41.2005 28.3312 41.6576 27.7102 42.0494C27.0892 42.5064 26.344 42.8329 25.5988 43.2247C24.8536 43.5512 23.9842 43.8123 23.1148 44.0082C22.2453 44.2041 21.3138 44.3346 20.3202 44.3346C18.8919 44.3346 17.5878 44.1388 16.5321 43.8123C15.4763 43.4858 14.6069 43.0288 13.9238 42.3758C13.2407 41.7882 12.7439 41.07 12.4334 40.2212C12.1229 39.3723 11.9366 38.5235 11.9366 37.5441C11.9366 36.173 12.2471 35.063 12.806 34.1488C13.3649 33.2347 14.1722 32.4512 15.1037 31.7983C14.6069 31.2759 14.2343 30.623 13.9238 29.8395C13.6133 29.1213 13.427 28.3377 13.427 27.4236C13.427 26.5095 13.6133 25.5954 13.9238 24.8119C14.2343 24.0283 14.7311 23.3101 15.29 22.7225C15.911 22.1348 16.5942 21.6778 17.4015 21.3513C18.2088 21.0248 19.0782 20.8942 20.0097 20.8942C21.0654 20.8942 21.9969 21.0901 22.8043 21.4166C23.6737 21.743 24.3568 22.2001 24.9778 22.7877C25.5988 23.3754 26.0335 24.0936 26.344 24.8771C26.6545 25.6607 26.8408 26.5748 26.8408 27.5542C26.8408 28.6642 26.5303 29.6436 25.9714 30.4924C25.4125 31.3412 24.7294 32.0594 23.9221 32.7124L26.7787 35.2588C27.0271 34.9977 27.2755 34.7365 27.5239 34.41C27.7723 34.1489 28.0828 33.7571 28.4554 33.2347L32.6783 37.0218C32.2436 37.6747 31.7468 38.3276 31.1879 38.9153C30.629 39.6335 30.0701 40.2211 29.449 40.7435ZM27.8344 37.6747C27.4618 38.0665 27.0271 38.3929 26.6545 38.7194C25.9093 39.2418 24.9778 39.7641 23.9221 40.2212C22.8664 40.6782 21.6243 40.8741 20.196 40.8741C19.6992 40.8741 19.2024 40.8088 18.6435 40.6782C18.1467 40.5476 17.6499 40.3517 17.2152 40.0906C16.7805 39.8294 16.4079 39.4377 16.1594 38.9806C15.8489 38.5235 15.7248 37.9359 15.7248 37.2829C15.7248 36.3035 15.9732 35.5853 16.5321 34.9977C17.0289 34.41 17.7741 33.8877 18.7677 33.3653L19.6992 32.843L24.6673 37.1523L25.2883 36.6953L20.4444 32.4512C21.6243 31.7983 22.5558 31.08 23.239 30.2965C23.9221 29.513 24.2947 28.5989 24.2947 27.4889C24.2947 26.9012 24.1705 26.3789 23.9842 25.9219C23.7358 25.4648 23.4874 25.0077 23.0527 24.6813C22.68 24.3548 22.2453 24.0936 21.6864 23.8977C21.1896 23.7019 20.6307 23.6366 20.0097 23.6366C19.5129 23.6366 19.0161 23.7019 18.5193 23.8977C18.0225 24.0936 17.5878 24.3548 17.2152 24.6813C16.8426 25.0077 16.5321 25.4648 16.2837 25.9219C16.0353 26.3789 15.9732 26.9666 15.9732 27.5542C15.9732 28.403 16.1595 29.1212 16.5942 29.7089C17.0289 30.3618 17.5878 30.9494 18.333 31.6024L19.1403 32.3206L18.3951 32.7124C17.9604 32.9736 17.4636 33.2347 17.091 33.4959C16.6563 33.8224 16.3458 34.1488 16.0353 34.4753C15.7248 34.8671 15.4763 35.2589 15.3521 35.7159C15.1658 36.173 15.1037 36.6953 15.1037 37.2177C15.1037 37.9359 15.2279 38.5888 15.5384 39.1765C15.8489 39.7641 16.2215 40.1559 16.7184 40.5476C17.2152 40.8741 17.7741 41.2006 18.3951 41.3312C19.0161 41.527 19.6992 41.5923 20.3823 41.5923C21.8106 41.5923 23.1148 41.3311 24.2947 40.8741C25.4125 40.417 26.4061 39.8294 27.2134 39.2417C28.1449 38.5235 28.9523 37.74 29.6975 36.8259L29.0765 36.3688C28.5796 36.8912 28.207 37.283 27.8344 37.6747ZM18.7677 31.08C17.8983 30.3618 17.4015 29.7089 17.091 29.1865C16.8426 28.6642 16.7184 28.1418 16.7184 27.6195C16.7184 26.7054 17.0289 25.9218 17.5878 25.3342C18.2088 24.7466 18.954 24.4201 19.8855 24.4201C20.3202 24.4201 20.7549 24.4854 21.1275 24.616C21.5622 24.7466 21.8727 24.9424 22.2454 25.2036C22.5559 25.4648 22.8042 25.7912 22.9906 26.183C23.1769 26.5748 23.3011 27.0319 23.3011 27.5542C23.3011 28.5989 22.9906 29.4477 22.3695 30.1006C21.7485 30.7536 20.8791 31.3412 19.6992 31.9942L18.7677 31.08ZM20.9412 28.403C21.1275 28.1418 21.2517 27.8154 21.2517 27.4236C21.2517 26.5748 20.8791 26.183 20.0718 26.183C19.6992 26.183 19.4508 26.3136 19.2024 26.5095C18.954 26.7707 18.8919 27.0318 18.8919 27.4236C18.8919 27.7501 18.954 28.0112 19.0782 28.3377C19.2024 28.5989 19.5129 28.9253 19.8855 29.3171C20.3823 28.9906 20.6928 28.6642 20.9412 28.403ZM18.4572 37.1523C18.4572 37.6747 18.6435 38.0665 19.0782 38.3277C19.4508 38.5888 19.9476 38.7194 20.4444 38.7194C20.7549 38.7194 21.0654 38.7194 21.438 38.6541C21.7485 38.5888 22.059 38.5235 22.3695 38.3929L19.3266 35.6506C18.7056 36.0424 18.4572 36.5647 18.4572 37.1523Z" fill="#83898F"/>
<path d="M21.2515 0H19.8853V17.3028H21.2515V0Z" fill="#83898F"/>
<path d="M21.2515 46.6854H19.8853V65.8817H21.2515V46.6854Z" fill="#83898F"/>
<path d="M62.3 29.934C59.8736 29.934 57.6784 29.4026 55.7142 28.3396C53.7732 27.2535 52.248 25.7746 51.1389 23.9029C50.0297 22.008 49.4751 19.8821 49.4751 17.5251C49.4751 15.1681 50.0297 13.0538 51.1389 11.182C52.248 9.28718 53.7847 7.80827 55.7489 6.74531C57.713 5.65925 59.9083 5.11621 62.3346 5.11621C64.2295 5.11621 65.9625 5.43972 67.5339 6.08674C69.1052 6.71065 70.4455 7.64652 71.5546 8.89434L69.3016 11.078C67.4761 9.16008 65.2 8.20111 62.4733 8.20111C60.6708 8.20111 59.0417 8.60549 57.586 9.41427C56.1302 10.223 54.9863 11.3438 54.1544 12.7765C53.3457 14.186 52.9413 15.7689 52.9413 17.5251C52.9413 19.2813 53.3457 20.8758 54.1544 22.3084C54.9863 23.718 56.1302 24.8272 57.586 25.636C59.0417 26.4448 60.6708 26.8491 62.4733 26.8491C65.1769 26.8491 67.453 25.8786 69.3016 23.9375L71.5546 26.1212C70.4455 27.3691 69.0937 28.3165 67.4992 28.9635C65.9279 29.6105 64.1948 29.934 62.3 29.934Z" fill="#83898F"/>
<path d="M78.1631 14.3709C78.7408 13.3079 79.5958 12.4992 80.7281 11.9446C81.8604 11.39 83.2353 11.1127 84.8528 11.1127V14.3362C84.668 14.3131 84.4138 14.3016 84.0903 14.3016C82.2879 14.3016 80.8667 14.8446 79.8269 15.9307C78.8101 16.9936 78.3018 18.5188 78.3018 20.506V29.6567H74.9742V11.286H78.1631V14.3709Z" fill="#83898F"/>
<path d="M104.348 20.5754C104.348 20.8295 104.325 21.1646 104.279 21.5806H89.374C89.582 23.1981 90.2868 24.5037 91.4884 25.4973C92.7131 26.4679 94.2267 26.9531 96.0291 26.9531C98.2243 26.9531 99.9921 26.2137 101.332 24.7348L103.169 26.8838C102.338 27.8543 101.298 28.5938 100.05 29.1022C98.8251 29.6105 97.4502 29.8647 95.9251 29.8647C93.9841 29.8647 92.2625 29.4719 90.7605 28.6862C89.2585 27.8774 88.0916 26.7567 87.2597 25.324C86.4509 23.8913 86.0465 22.2738 86.0465 20.4714C86.0465 18.6921 86.4393 17.0861 87.225 15.6534C88.0338 14.2207 89.1314 13.1115 90.5179 12.3259C91.9275 11.5171 93.5103 11.1127 95.2665 11.1127C97.0227 11.1127 98.5825 11.5171 99.9459 12.3259C101.332 13.1115 102.407 14.2207 103.169 15.6534C103.955 17.0861 104.348 18.7267 104.348 20.5754ZM95.2665 13.9203C93.6721 13.9203 92.3318 14.4056 91.2458 15.3761C90.1828 16.3466 89.5589 17.6176 89.374 19.1889H101.159C100.974 17.6407 100.339 16.3813 99.2526 15.4108C98.1897 14.4171 96.861 13.9203 95.2665 13.9203Z" fill="#83898F"/>
<path d="M114.111 11.1127C116.652 11.1127 118.594 11.7366 119.934 12.9844C121.297 14.2323 121.979 16.0924 121.979 18.565V29.6567H118.825V27.2304C118.27 28.0854 117.473 28.744 116.433 29.2061C115.416 29.6452 114.203 29.8647 112.793 29.8647C110.737 29.8647 109.085 29.3679 107.837 28.3743C106.612 27.3806 106 26.075 106 24.4575C106 22.8399 106.589 21.5459 107.768 20.5754C108.946 19.5817 110.818 19.0849 113.383 19.0849H118.651V18.4263C118.651 16.9936 118.235 15.896 117.403 15.1335C116.572 14.3709 115.347 13.9896 113.729 13.9896C112.643 13.9896 111.58 14.1745 110.54 14.5442C109.501 14.8908 108.623 15.3645 107.906 15.9653L106.52 13.4697C107.467 12.7071 108.599 12.1294 109.917 11.7366C111.234 11.3207 112.632 11.1127 114.111 11.1127ZM113.348 27.2997C114.619 27.2997 115.717 27.0224 116.641 26.4679C117.565 25.8902 118.235 25.0814 118.651 24.0415V21.4766H113.521C110.702 21.4766 109.293 22.424 109.293 24.3188C109.293 25.2431 109.651 25.971 110.367 26.5025C111.083 27.034 112.077 27.2997 113.348 27.2997Z" fill="#83898F"/>
<path d="M137.426 28.5822C136.941 28.9982 136.34 29.3217 135.624 29.5528C134.907 29.7607 134.168 29.8647 133.405 29.8647C131.557 29.8647 130.124 29.3679 129.107 28.3743C128.091 27.3806 127.582 25.9595 127.582 24.1109V14.0243H124.463V11.286H127.582V7.26524H130.91V11.286H136.178V14.0243H130.91V23.9722C130.91 24.9659 131.152 25.7284 131.638 26.2599C132.146 26.7914 132.862 27.0571 133.787 27.0571C134.803 27.0571 135.67 26.7683 136.386 26.1906L137.426 28.5822Z" fill="#83898F"/>
<path d="M156.403 20.5754C156.403 20.8295 156.38 21.1646 156.334 21.5806H141.429C141.637 23.1981 142.342 24.5037 143.543 25.4973C144.768 26.4679 146.282 26.9531 148.084 26.9531C150.279 26.9531 152.047 26.2137 153.387 24.7348L155.224 26.8838C154.392 27.8543 153.353 28.5938 152.105 29.1022C150.88 29.6105 149.505 29.8647 147.98 29.8647C146.039 29.8647 144.317 29.4719 142.815 28.6862C141.313 27.8774 140.146 26.7567 139.315 25.324C138.506 23.8913 138.101 22.2738 138.101 20.4714C138.101 18.6921 138.494 17.0861 139.28 15.6534C140.089 14.2207 141.186 13.1115 142.573 12.3259C143.982 11.5171 145.565 11.1127 147.321 11.1127C149.078 11.1127 150.637 11.5171 152.001 12.3259C153.387 13.1115 154.462 14.2207 155.224 15.6534C156.01 17.0861 156.403 18.7267 156.403 20.5754ZM147.321 13.9203C145.727 13.9203 144.387 14.4056 143.301 15.3761C142.238 16.3466 141.614 17.6176 141.429 19.1889H153.214C153.029 17.6407 152.394 16.3813 151.308 15.4108C150.245 14.4171 148.916 13.9203 147.321 13.9203Z" fill="#83898F"/>
<path d="M163.172 14.3709C163.75 13.3079 164.605 12.4992 165.737 11.9446C166.87 11.39 168.245 11.1127 169.862 11.1127V14.3362C169.677 14.3131 169.423 14.3016 169.1 14.3016C167.297 14.3016 165.876 14.8446 164.836 15.9307C163.819 16.9936 163.311 18.5188 163.311 20.506V29.6567H159.984V11.286H163.172V14.3709Z" fill="#83898F"/>
<path d="M54.917 41.0902V49.5476H67.0833V52.5286H54.917V62.3378H51.4508V38.0746H68.5737V41.0902H54.917Z" fill="#83898F"/>
<path d="M77.9744 43.7938C80.5162 43.7938 82.4573 44.4177 83.7976 45.6655C85.1609 46.9134 85.8426 48.7735 85.8426 51.2461V62.3378H82.6884V59.9115C82.1338 60.7665 81.3366 61.4251 80.2967 61.8872C79.28 62.3263 78.0668 62.5458 76.6572 62.5458C74.6006 62.5458 72.9484 62.049 71.7006 61.0554C70.4759 60.0617 69.8635 58.7561 69.8635 57.1386C69.8635 55.521 70.4528 54.227 71.6313 53.2565C72.8098 52.2628 74.6815 51.766 77.2465 51.766H82.5151V51.1074C82.5151 49.6747 82.0991 48.5771 81.2672 47.8146C80.4354 47.052 79.2107 46.6707 77.5931 46.6707C76.507 46.6707 75.4441 46.8556 74.4042 47.2253C73.3644 47.5719 72.4863 48.0456 71.7699 48.6464L70.3835 46.1508C71.3309 45.3882 72.4632 44.8105 73.7803 44.4177C75.0975 44.0018 76.4955 43.7938 77.9744 43.7938ZM77.2118 59.9808C78.4828 59.9808 79.5804 59.7035 80.5047 59.149C81.429 58.5713 82.0991 57.7625 82.5151 56.7226V54.1577H77.3851C74.566 54.1577 73.1564 55.1051 73.1564 56.9999C73.1564 57.9242 73.5146 58.6521 74.2309 59.1836C74.9473 59.7151 75.9409 59.9808 77.2118 59.9808Z" fill="#83898F"/>
<path d="M106.879 43.9671L98.837 62.3378H95.4401L87.3986 43.9671H90.8648L97.1732 58.6984L103.62 43.9671H106.879Z" fill="#83898F"/>
</g>
<defs>
<filter id="filter0_d_9_83" x="0.236084" y="0" width="173.626" height="73.8817" filterUnits="userSpaceOnUse" color-interpolation-filters="sRGB">
<feFlood flood-opacity="0" result="BackgroundImageFix"/>
<feColorMatrix in="SourceAlpha" type="matrix" values="0 0 0 0 0 0 0 0 0 0 0 0 0 0 0 0 0 0 127 0" result="hardAlpha"/>
<feOffset dy="4"/>
<feGaussianBlur stdDeviation="2"/>
<feComposite in2="hardAlpha" operator="out"/>
<feColorMatrix type="matrix" values="0 0 0 0 0 0 0 0 0 0 0 0 0 0 0 0 0 0 0.25 0"/>
<feBlend mode="normal" in2="BackgroundImageFix" result="effect1_dropShadow_9_83"/>
<feBlend mode="normal" in="SourceGraphic" in2="effect1_dropShadow_9_83" result="shape"/>
</filter>
</defs>
</svg>
